<svg width="128" height="16" viewBox="0 0 128 16" fill="none" xmlns="http://www.w3.org/2000/svg">
<path d="M126.611 2.96701C125.88 2.96701 125.287 3.54199 125.287 4.24441C125.287 4.96136 125.88 5.53634 126.611 5.53634C127.339 5.53634 127.929 4.96136 127.929 4.24441C127.929 3.54199 127.339 2.96701 126.611 2.96701ZM126.611 5.28525C126.014 5.28525 125.538 4.83028 125.538 4.24441C125.538 3.6767 126.014 3.2181 126.611 3.2181C127.201 3.2181 127.678 3.6767 127.678 4.24441C127.678 4.83028 127.201 5.28525 126.611 5.28525ZM67.6713 0.00634766H54.1268C52.2689 0.00634766 49.8716 0.00634766 48.4333 2.52351L42.4401 12.7118C41.601 14.0902 42.3203 15.2289 43.8784 15.2289H59.6404C61.2587 15.2289 62.2773 14.7495 63.536 12.7118L69.5292 2.52351C70.3081 1.20502 69.1096 0.00634766 67.6713 0.00634766ZM60.06 3.90199L55.5651 11.5133C54.9657 12.5921 54.4264 12.7118 53.048 12.7118C51.6695 12.7118 51.3098 12.2323 51.7295 11.5133L56.2842 3.90199C56.9434 2.76332 57.7225 2.52351 58.8611 2.52351C60.0002 2.52351 60.6592 2.88313 60.06 3.90199ZM43.9384 0.00634766H26.5581L19.0668 12.7118H2.52576L0 15.2289H35.9077C38.125 15.2289 38.8443 14.15 39.3237 13.3112L41.1216 10.1946C41.601 9.35555 41.601 8.39668 40.6422 7.85744C41.6029 7.85744 42.9195 7.1982 43.6988 5.81972L45.4967 2.76332C46.3955 1.26483 45.3169 0.00634766 43.9384 0.00634766ZM35.0086 10.2546L34.1096 11.6929C33.8699 12.1725 33.4503 12.7118 32.4315 12.7118H27.9966L30.2754 8.8763H34.5892C35.3682 8.8763 35.3682 9.59555 35.0086 10.2546ZM38.7843 3.90199L37.8852 5.34028C37.6454 5.81972 37.226 6.35915 36.2071 6.35915H31.7722L34.0496 2.52351H38.3646C39.1439 2.52351 39.1439 3.24275 38.7843 3.90199Z" fill="#E7E7E7"/>
</svg>
